<?xml version="1.0" encoding="UTF-8"?><svg id="uuid-78a4ee67-dbed-4750-894a-9d98ad4314ce" xmlns="http://www.w3.org/2000/svg" viewBox="0 15 108 108" width="21"><path d="M45.857,76.478c.002-.084,.004-.197,.005-.326h-.308l.303,.326Z" fill="none"/><polygon points="63.425 76.152 63.418 76.152 63.419 76.157 63.425 76.152" fill="none"/><path d="M33.945,55.441c3.159,2.369,7.602,2.048,9.23,1.83-.628-1.624-1.397-3.099-2.348-4.288-2.412-3.015-6.226-4.625-9.993-5.47-.076,1.758,.122,5.686,3.111,7.928Z" fill="none"/><path d="M77.553,48.723c.098,1.383-.086,5.835-3.191,8.163-2.865,2.148-6.712,2.011-8.83,1.812-.06,.132-.885,2.263-1.129,3.238,0,0,6.408,6,8.872,15.447,1.661-2.687,2.989-3.572,4.3-4.789,5.161-4.793,12.47-8.334,12.47-8.334l.269-16.186s-6.332-1.028-12.762,.648Z" fill="#eff6fb"/><path d="M54.178,89.504s-6.166,5.917-12.515,3.48c2.262,4.397,3.721,7.527,3.721,7.527,0,0,3.508,3.617,8.795,3.617s8.387-3.318,8.387-3.318c0,0,1.485-3.202,3.598-7.382-6.526,2.331-11.985-3.923-11.985-3.923Z" fill="#eff6fb"/><path d="M72.833,79.925c-1.615-8.112-8.727-16.393-8.727-16.393-.638,9.383,.5,14.69,.5,14.691l-10.429,9.919-10.422-9.983s.947-5.883,.245-13.734c-2.43,2.94-7.38,9.425-8.483,15.91-.518,3.045-.115,5.969,1.965,8.288,1.359,1.515,2.774,2.459,4.18,2.999,6.349,2.438,12.515-3.48,12.515-3.48,0,0,5.459,6.255,11.985,3.923,1.55-.554,3.159-1.587,4.77-3.309,2.229-2.382,2.555-5.542,1.901-8.832Z" fill="#eff6fb"/><path d="M33.498,56.398c-2.989-2.242-3.188-5.853-3.111-7.611-5.957-1.337-11.799-.766-11.799-.766v15.545s7.199,3.667,11.561,8.029c1.216,1.216,2.671,3.079,4.468,6.128,1.66-6.894,5.731-11.567,8.585-15.032-.415-2.032-1.213-3.702-1.213-3.702-2.368,.162-5.878-.631-8.492-2.591Z" fill="#eff6fb"/><path d="M93.586,2.681l-24.905,19.99h-29.821L15.265,2.681l14.399,30.148-10.63,13.927s13.769-1.624,19.987,4.541c7.532,7.468,6.631,20.02,6.532,26.426h17.277c-.34-5.617-1.532-18.319,4.787-25.404,6.98-7.826,22.528-5.627,22.528-5.627l-10.65-13.863L93.586,2.681Z" fill="#eff6fb"/><polygon points="15.265 5.191 19.034 44.489 27.936 32.829 15.265 5.191" fill="#eff6fb"/><polygon points="81.213 32.829 90.145 44.553 93.723 5.064 81.213 32.829" fill="#eff6fb"/></svg>
